<svg xmlns="http://www.w3.org/2000/svg" viewBox="0 0 627.84 196.76"><defs><style>.cls-1{fill:#b3ddff;}.cls-2{opacity:0.1;}.cls-3{fill:#5db3c1;}.cls-4{fill:#ffbd5c;}.cls-5{fill:#3c3372;}.cls-6{fill:#fff;}.cls-7{fill:#4f9ba3;}.cls-8{fill:#baedb2;}.cls-9{fill:#db9a4b;}.cls-10{fill:#ffc9b5;}.cls-11{fill:#d1a76b;}.cls-12{fill:#b57341;}.cls-13{fill:#f5f5f5;}</style></defs><title>loginArtboard 4</title><g id="OBJECTS"><path class="cls-1" d="M627.84,0V40.31c0,32.24-17.19,63.56-53.52,87.37-58.18,38.17-148.53,58.14-229.53,46.26-22.24-3.26-40.78-7.82-68.56-14.81-83.58-21-143.84,3-192.33-7.14C35.24,141.84,0,97.64,0,48.33V0Z"/><path class="cls-2" d="M278.91,191.42c0,3-13.72,5.34-30.66,5.34s-30.65-2.39-30.65-5.34,13.72-5.34,30.65-5.34S278.91,188.47,278.91,191.42Z"/><path class="cls-3" d="M275,55.92H217.46a6.53,6.53,0,0,1-6.53-6.53h0a6.53,6.53,0,0,1,6.53-6.53H275a6.53,6.53,0,0,1,6.53,6.53h0A6.53,6.53,0,0,1,275,55.92Z"/><path class="cls-4" d="M222.57,49.39a5,5,0,1,1-5-5A5,5,0,0,1,222.57,49.39Z"/><path class="cls-5" d="M218.39,49.77l.36-.1a.62.62,0,0,1,.53.07c.69.41,1.38.84,2.06,1.26,0,0,0,.08.09.17a3,3,0,0,1-.8,1.26,14,14,0,0,1-2.48-1.58c0-.13-.05-.27-.08-.48-.2.21-.34.38-.51.54a2.23,2.23,0,0,1-2.42.54,2.2,2.2,0,0,1-1.39-1.53,2.8,2.8,0,0,1,.45-2.56,2.33,2.33,0,0,1,2.5-.93,2.36,2.36,0,0,1,1.68,2.07C218.42,48.89,218.39,49.28,218.39,49.77Zm-4.17-.69a2,2,0,0,0,.45,1.34,1.65,1.65,0,0,0,1.89.46,2.2,2.2,0,0,0,.68-3.48,1.55,1.55,0,0,0-1.59-.39A2.15,2.15,0,0,0,214.22,49.08Zm6.25,2.62.18-.39c-.79-.6-1.53-1-1.72-1l-.14.27C219.33,51,219.85,51.33,220.47,51.7Z"/><path class="cls-6" d="M214.22,49.08A2.15,2.15,0,0,1,215.65,47a1.55,1.55,0,0,1,1.59.39,2.2,2.2,0,0,1-.68,3.48,1.65,1.65,0,0,1-1.89-.46A2,2,0,0,1,214.22,49.08Z"/><path class="cls-6" d="M220.47,51.7c-.62-.37-1.14-.7-1.68-1.08l.14-.27c.19-.07.93.36,1.72,1Z"/><rect class="cls-4" x="210.93" y="59.86" width="32.58" height="32.58" rx="8.42"/><rect class="cls-3" x="248.94" y="59.86" width="32.58" height="32.58" rx="8.42"/><rect class="cls-3" x="210.93" y="96.32" width="32.58" height="32.58" rx="8.42"/><rect class="cls-3" x="248.94" y="96.32" width="32.58" height="32.58" rx="8.42"/><path class="cls-6" d="M218.62,79.44a5.46,5.46,0,0,1-.9-.07,4.23,4.23,0,0,1-3.42-2.93,4.5,4.5,0,0,1,.88-4.6,4.57,4.57,0,0,1,3.63-1.7h.07a4.54,4.54,0,0,1,3.88,2.15,4.58,4.58,0,0,1,.17,4.55A4.72,4.72,0,0,1,218.62,79.44Z"/><path class="cls-6" d="M217.86,81A6.38,6.38,0,0,0,220,83.59v0l.13,0A3.4,3.4,0,0,0,224,83.2c4-2.91.73-7.28.73-7.28Z"/><path class="cls-6" d="M235,67.92C232.41,69,228,73,228,73c.73,1.46,3.27,4.37,6.55,1.82S235,67.92,235,67.92Z"/><path class="cls-5" d="M225.8,75.73a3.29,3.29,0,0,1,1.9-1.44c0-.46-.45-.83-.27-1.32a61.73,61.73,0,0,1,8.08-6,2,2,0,0,1,1,.62l.77-.15c.44.47-.12.69-.2,1.07l.14.45a5,5,0,0,1-.15,3.5,6,6,0,0,1-4.56,3.8,4.49,4.49,0,0,1-3.58-.73l-.59-.42a4.34,4.34,0,0,0-.51,0,1.62,1.62,0,0,0-1.38,2c0,.22.13.44.17.67a5.26,5.26,0,0,1-.79,3.92,6,6,0,0,1-3.8,2.73,4.57,4.57,0,0,1-4.18-.93l-.33-.27s-.06,0-.1,0l-.57.27-.43-.2c0-.13,0-.23,0-.29.14-.21.31-.41.46-.6l-.3-1c.29-.67,1-.9,1.35-1.39,0-.18-.14-.15-.23-.19a2.09,2.09,0,0,0-.34-.08c-1.66-.07-3.54-2.28-3.66-3.87a5.14,5.14,0,0,1,4.62-6,4.92,4.92,0,0,1,5.35,3.88,4.55,4.55,0,0,1,.1,1.56c0,.11,0,.22,0,.42l.9-.47C225.18,75.08,225.41,75.51,225.8,75.73Zm-7-5.23a4.25,4.25,0,0,0-3.36,1.57,4.15,4.15,0,0,0-.82,4.25A3.88,3.88,0,0,0,217.78,79a4.46,4.46,0,0,0,4.82-2.33A4.21,4.21,0,0,0,218.82,70.5Zm14.31-1a2.72,2.72,0,0,0-1,.59c-.3.22-.59.46-.84.65-.07.61-.1,3.76-.05,4.41a2.22,2.22,0,0,0,.1.36,3.09,3.09,0,0,0,1.84-.32C233.18,73.35,233.16,71.5,233.13,69.54Zm-11.31,9.34c-.59.23-1.12.57-1.68.8a22.8,22.8,0,0,0-.16,3.94,2.14,2.14,0,0,0,1.75,0,1,1,0,0,0,.07-.27c0-1.42.07-2.84.1-4.26A1,1,0,0,0,221.82,78.88Zm13.07-4.6c0-.29,0-.52,0-.76-.06-1.13-.12-2.26-.19-3.39,0-.49-.09-1-.14-1.47,0,0-.08-.07-.15-.12l-.53.37c0,2,0,3.93.13,5.9A1.66,1.66,0,0,0,234.89,74.28ZM223.48,83c.07-.81,0-4.6-.12-5.57,0,0-.06-.08-.11-.16a2.8,2.8,0,0,0-.58.81c0,1.71-.1,3.36-.13,5a1.08,1.08,0,0,0,.09.34A1.53,1.53,0,0,0,223.48,83Z"/><path class="cls-7" d="M216.58,74.34c.64.14,1,.71,1.55.94a2.38,2.38,0,0,0,.36-.3c.64-.71,1.26-1.43,1.9-2.14l.44-.47c.28-.09.45,0,.53.2a.54.54,0,0,1,0,.18,1.33,1.33,0,0,1-.18.3c-.84,1-1.68,1.91-2.53,2.85a2.63,2.63,0,0,1-.39.29,1.19,1.19,0,0,1-.29-.06c-.51-.38-1-.76-1.51-1.16C216.29,74.83,216.33,74.68,216.58,74.34Z"/><path class="cls-8" d="M268.72,85.53c-1.09-.1-2.12-.27-3.12-.43a4.19,4.19,0,0,1-.08-1.83c.34-1.88.75-3.76,1-5.65.22-1.62.65-3.19.84-4.81a11.86,11.86,0,0,1,.27-1.18,2.08,2.08,0,0,0,.05-1,.46.46,0,0,0-.7.13c-.47.59-.95,1.17-1.41,1.77-.9,1.14-1.78,2.29-2.67,3.42-1.19,1.51-2.37,3-3.57,4.5a5.53,5.53,0,0,1-1.07,1.24,9.93,9.93,0,0,1-2.54-1.53,2,2,0,0,1,.16-.47c.89-1.49,1.81-3,2.7-4.47s1.79-3,2.69-4.56c.68-1.15,1.39-2.28,2.08-3.42.57-.94,1.13-1.88,1.67-2.79a1.11,1.11,0,0,1,.88.17l3.73,1.66,3.8,1.71a1.09,1.09,0,0,1,.25.19c-.13.51-.24,1-.39,1.57-.35,1.29-.73,2.57-1.09,3.85-.23.81-.46,1.61-.7,2.42-.32,1.09-.66,2.16-1,3.25-.48,1.7-.94,3.41-1.42,5.11C269,84.73,268.88,85.08,268.72,85.53Z"/><path class="cls-6" d="M258.19,82.63c-.11.45-.43.66-.73,1-1.18-.66-2.29-1.43-3.47-2.19a1.52,1.52,0,0,1,.16-.39c.15-.2.33-.39.5-.58A22.26,22.26,0,0,1,258.19,82.63Z"/><path class="cls-6" d="M264.79,86.73a1.62,1.62,0,0,1,.09-1,1.58,1.58,0,0,1,.26-.06c.51,0,3.52.51,4,.63a.94.94,0,0,1-.19.9,8.07,8.07,0,0,1-1.55-.16c-.55,0-1.1-.09-1.64-.15a6,6,0,0,1-.61-.08A1.44,1.44,0,0,1,264.79,86.73Z"/><path class="cls-6" d="M257.44,116.28a1.17,1.17,0,0,1-.12-.31c-.34-3.12-.68-6.24-1-9.39a4,4,0,0,1,.53-.15l2.6-.29c2.05-.2,4.11-.38,6.16-.59l6-.62a3,3,0,0,1,1,0c.23,1.06.31,2.13.44,3.18s.25,2.14.39,3.21.29,2.12.38,3.13c-.08.08-.09.11-.11.12a.48.48,0,0,1-.16.08l-15.78,1.66A1,1,0,0,1,257.44,116.28Z"/><path class="cls-5" d="M257.61,84.46c-1.46-.89-2.82-1.78-4.18-2.65-.09,0-.13-.18-.21-.29.15-.75.75-1.22,1.09-1.85h.85l1.81-3c.72-1.22,1.46-2.44,2.19-3.66l2.68-4.48L263.31,66l1.06-1.79c.34-.58.61-.7,1.22-.46s1.38.6,2.07.91l2.23,1,1.83.82,2.52,1.13a.69.69,0,0,1,.1.75c-.22.78-.46,1.56-.68,2.34l-.9,3.27c-.21.75-.43,1.51-.65,2.26-.32,1.08-.65,2.16-1,3.25s-.55,2-.83,3-.58,1.95-.88,3l.39.43a3.38,3.38,0,0,1-.49,2,5.15,5.15,0,0,1-.57,0l-4.24-.52a2.17,2.17,0,0,1-.24-.07c-.28-.53-.28-.78,0-2.07l.47-.29a.76.76,0,0,0,.06-.18,28.58,28.58,0,0,1,.47-3.8c.31-1.51.62-3,.83-4.54.15-1.07.37-2.12.58-3.17.07-.34.07-.68.11-1-.11,0-.19,0-.22.06q-3.82,4.85-7.67,9.7c.06.18.12.33.18.52A7.48,7.48,0,0,1,257.61,84.46Zm11.11,1.07c.16-.45.3-.8.4-1.17.48-1.7.94-3.41,1.42-5.11.31-1.09.65-2.16,1-3.25.24-.81.47-1.61.7-2.42.36-1.28.74-2.56,1.09-3.85.15-.52.26-1.06.39-1.57a1.09,1.09,0,0,0-.25-.19l-3.8-1.71-3.73-1.66a1.11,1.11,0,0,0-.88-.17c-.54.91-1.1,1.85-1.67,2.79-.69,1.14-1.4,2.27-2.08,3.42-.9,1.51-1.79,3-2.69,4.56s-1.81,3-2.7,4.47a2,2,0,0,0-.16.47,9.93,9.93,0,0,0,2.54,1.53,5.53,5.53,0,0,0,1.07-1.24c1.2-1.49,2.38-3,3.57-4.5.89-1.13,1.77-2.28,2.67-3.42.46-.6.94-1.18,1.41-1.77a.46.46,0,0,1,.7-.13,2.08,2.08,0,0,1-.05,1,11.86,11.86,0,0,0-.27,1.18c-.19,1.62-.62,3.19-.84,4.81-.26,1.89-.67,3.77-1,5.65a4.19,4.19,0,0,0,.08,1.83C266.6,85.26,267.63,85.43,268.72,85.53Zm-10.53-2.9a22.26,22.26,0,0,0-3.54-2.2c-.17.19-.35.38-.5.58a1.52,1.52,0,0,0-.16.39c1.18.76,2.29,1.53,3.47,2.19C257.76,83.29,258.08,83.08,258.19,82.63Zm6.6,4.1a1.44,1.44,0,0,0,.32.13,6,6,0,0,0,.61.08c.54.06,1.09.13,1.64.15a8.07,8.07,0,0,0,1.55.16.94.94,0,0,0,.19-.9c-.44-.12-3.45-.61-4-.63a1.58,1.58,0,0,0-.26.06A1.62,1.62,0,0,0,264.79,86.73Z"/><path class="cls-5" d="M265.73,116.25a8.27,8.27,0,0,0,.19,1.7,4.34,4.34,0,0,0,.51,0l3.28-.42c.2,0,.41,0,.64,0,0,.17.1.32.13.46a1.46,1.46,0,0,1-.93.32l-6.92.86a3.2,3.2,0,0,1-1.27,0c-.2-.2-.17-.38,0-.59,1.18-.23,2.42-.3,3.66-.51a4.15,4.15,0,0,0-.14-1.72c-1.33,0-2.61.23-3.91.36l-3.82.39a1,1,0,0,1-.58-.9c-.12-1.15-.25-2.31-.37-3.46-.15-1.39-.31-2.77-.46-4.16-.08-.63-.16-1.27-.22-1.9s.11-.9.8-1c.89-.11,1.79-.18,2.69-.27l4.25-.42,4.68-.46,4.08-.41.35,0c.55,0,.83.15.91.69s.19,1.38.28,2.07c.2,1.62.39,3.23.59,4.85.09.72.19,1.44.27,2.16,0,.31.07.63.09,1a1.14,1.14,0,0,1-.05.23.78.78,0,0,1-.63.3l-5.37.55Zm-8.29,0a1,1,0,0,0,.27,0l15.78-1.66a.48.48,0,0,0,.16-.08s0,0,.11-.12c-.09-1-.24-2.07-.38-3.13s-.25-2.14-.39-3.21-.21-2.12-.44-3.18a3,3,0,0,0-1,0l-6,.62c-2.05.21-4.11.39-6.16.59l-2.6.29a4,4,0,0,0-.53.15c.35,3.15.69,6.27,1,9.39A1.17,1.17,0,0,0,257.44,116.28Z"/><path class="cls-5" d="M269,67.65c-.08.39-.25.46-.42.39-.37-.14-.73-.32-1.12-.5,0-.2,0-.35,0-.52C268.1,67,268.46,67.46,269,67.65Z"/><path class="cls-5" d="M265.24,65.69a3,3,0,0,1,1.25.75l-.26.38c-.48,0-.74-.39-1.11-.64C265.15,66,265.19,65.9,265.24,65.69Z"/><path class="cls-5" d="M270.78,68.66a1.08,1.08,0,0,1-.11.24s-.09.06-.15.1c-.44,0-.75-.33-1.14-.52.05-.16.09-.26.12-.37C270.08,68,270.42,68.31,270.78,68.66Z"/><path class="cls-5" d="M271.43,69.3c.23-.35.34-.39.62-.23s.23.23.07.56A.57.57,0,0,1,271.43,69.3Z"/><path class="cls-4" d="M235.67,111.9c0-.58-.1-1.15-.16-1.73a3.72,3.72,0,0,0-.9-2,7.07,7.07,0,0,0-3.09-2.2,7.67,7.67,0,0,0-6.1.29,11.27,11.27,0,0,0-1.35.78,10.38,10.38,0,0,0-3.76,4.15,13.74,13.74,0,0,0-1.23,4.25.83.83,0,0,0,.06.27,3.07,3.07,0,0,0,.34,0,27.65,27.65,0,0,1,6.41-.61c1.1,0,2.2.09,3.31.14l2.26.1c.1,0,.24,0,.24-.2h0a1.42,1.42,0,0,0,.17-.75,9.73,9.73,0,0,0,2.41-.12,1.48,1.48,0,0,0,1.2-1A3,3,0,0,0,235.67,111.9Z"/><path class="cls-9" d="M218.08,119.32a2.5,2.5,0,0,1-.24-2.11.88.88,0,0,1,.76-.63c.89-.18,1.77-.38,2.65-.5,1.13-.15,2.26-.25,3.38-.34a15.32,15.32,0,0,1,1.66,0c1.07,0,2.15.08,3.22.15,1.27.08,2.55.2,3.82.31a1.8,1.8,0,0,1,1.21.46,2.86,2.86,0,0,1-.11,1.61,1.38,1.38,0,0,1-.83.84,7.16,7.16,0,0,1-2.26.61c-1.5.17-3,.3-4.51.43-.72.06-1.45.07-2.17.11a23.51,23.51,0,0,1-3.66-.21A8.22,8.22,0,0,1,218.08,119.32Z"/><path class="cls-5" d="M232.6,115.31c.4.07.68.11,1,.18a8.29,8.29,0,0,1,1.08.31,1,1,0,0,1,.67.94,8.18,8.18,0,0,1-.11,1.57,1.83,1.83,0,0,1-1.09,1.38,7.83,7.83,0,0,1-1.47.53,13.31,13.31,0,0,1-2.58.4c-.61,0-1.22.11-1.83.17a32.83,32.83,0,0,1-7.48,0,21.32,21.32,0,0,1-2.47-.53A1.55,1.55,0,0,1,217.1,119a4,4,0,0,1,.05-2.06,1.4,1.4,0,0,1,.57-.76l.53-.32c.09-.55.19-1.09.28-1.63a12,12,0,0,1,.73-2.51,11.46,11.46,0,0,1,6.61-6.46,8.23,8.23,0,0,1,5-.26,7.92,7.92,0,0,1,4.28,2.7,4.34,4.34,0,0,1,1,2.11,11.56,11.56,0,0,1,.17,2.69,3.17,3.17,0,0,1-.42,1.41,1.78,1.78,0,0,1-1.2.94c-.42.1-.86.14-1.29.2A1.12,1.12,0,0,0,232.6,115.31Zm-13.46.36a3.07,3.07,0,0,0,.34,0,27.65,27.65,0,0,1,6.41-.61c1.1,0,2.2.09,3.31.14l2.26.1c.1,0,.24,0,.24-.2l-.4-.06-1.11-.19a.83.83,0,0,1-.32-.13.33.33,0,0,1,.14-.62c.37,0,.74.12,1.12.17a9.9,9.9,0,0,0,3.12,0,1.48,1.48,0,0,0,1.2-1,3,3,0,0,0,.22-1.28c0-.58-.1-1.15-.16-1.73a3.72,3.72,0,0,0-.9-2,7.07,7.07,0,0,0-3.09-2.2,7.67,7.67,0,0,0-6.1.29,11.27,11.27,0,0,0-1.35.78,10.38,10.38,0,0,0-3.76,4.15,13.74,13.74,0,0,0-1.23,4.25A.83.83,0,0,0,219.14,115.67Zm-1.06,3.65a8.22,8.22,0,0,0,2.92.74,23.51,23.51,0,0,0,3.66.21c.72,0,1.45,0,2.17-.11,1.5-.13,3-.26,4.51-.43a7.16,7.16,0,0,0,2.26-.61,1.38,1.38,0,0,0,.83-.84,2.86,2.86,0,0,0,.11-1.61,1.8,1.8,0,0,0-1.21-.46c-1.27-.11-2.55-.23-3.82-.31-1.07-.07-2.15-.11-3.22-.15a15.32,15.32,0,0,0-1.66,0c-1.12.09-2.25.19-3.38.34-.88.12-1.76.32-2.65.5a.88.88,0,0,0-.76.63A2.5,2.5,0,0,0,218.08,119.32Z"/><path class="cls-5" d="M221,111.76h0a.35.35,0,0,1-.14-.39,2.17,2.17,0,0,1,.58-1,.43.43,0,0,1,.39,0,.27.27,0,0,1,.14.36,2.75,2.75,0,0,1-.53,1A.34.34,0,0,1,221,111.76Z"/><path class="cls-5" d="M220.76,112.74c.05.06.18.15.21.26a.34.34,0,0,1-.33.4.36.36,0,0,1-.3-.36C220.36,112.87,220.51,112.74,220.76,112.74Z"/><path class="cls-2" d="M216.41,191.42c0,3-13.73,5.34-30.66,5.34s-30.66-2.39-30.66-5.34,13.73-5.34,30.66-5.34S216.41,188.47,216.41,191.42Z"/><path class="cls-7" d="M172.51,189.82c-1.11.05-2.15,0-3.19,0-3.07-.08-6.14,0-9.16-.22-.07-.06-.1-.08-.11-.1a.28.28,0,0,1,0-.09c.29-1.75.58-3.49.88-5.24,0,0,.06-.09.12-.2.28,0,.59-.09.9-.1,1.63,0,3.26-.08,4.88-.09a3.83,3.83,0,0,1,1.11.17,8.38,8.38,0,0,1,2.86,1.44,5.28,5.28,0,0,1,1.37,1.57A3.61,3.61,0,0,1,172.51,189.82Z"/><path class="cls-7" d="M195.89,189.62c-.14-1.56-.09-3-.2-4.49a1.73,1.73,0,0,1,.33-.1,14.48,14.48,0,0,0,5.83-1,12.43,12.43,0,0,1,5.84,2.49,7.59,7.59,0,0,1,1.51,1.69,2.14,2.14,0,0,1,.45,1.34,5.21,5.21,0,0,1-.67.06h-5.41l-6.72,0Z"/><path class="cls-10" d="M212.41,78.66a.35.35,0,0,0,.11.47c.14.1.31.16.45.25.59.37,1.18.74,1.75,1.14a1.28,1.28,0,0,1,.63.85,2.5,2.5,0,0,1-.62,1.09c-.48.54-1,1.05-1.51,1.56a4,4,0,0,1-.67.56,2,2,0,0,0-.86,1.71,4.75,4.75,0,0,1-.17,1.63,21.79,21.79,0,0,1-3.78,0c0-.3.07-.61.11-.92l.48-3.53c.13-.9.28-1.78.4-2.67a2.59,2.59,0,0,1,.79-1.52c.23-.22.46-.44.71-.64a30.09,30.09,0,0,1,5.08-3.19,5.14,5.14,0,0,1,.9-.33.78.78,0,0,1,.33,0,1.31,1.31,0,0,1-.54.71c-.91.81-1.83,1.61-2.77,2.39A4,4,0,0,1,212.41,78.66Z"/><path class="cls-3" d="M212.78,89.7q0-.26,0-.54l0-.25a.38.38,0,0,0-.22-.32,3.28,3.28,0,0,0-1.23-.18h-.46a12.82,12.82,0,0,0-1.38-.05h-.75a2.88,2.88,0,0,0-1.25.22.37.37,0,0,0-.21.26l0,.14c0,.11,0,.22-.07.32L207,90.65l-.15,1.14-.15,1.11c-.08.55-.15,1.1-.22,1.65-.16,1.21-.31,2.42-.46,3.64,0,.18-.05.36-.08.55a11.21,11.21,0,0,0-.14,2.41.27.27,0,0,0,0,.12l-2.56-4-.73-1.18-.36-.58a.37.37,0,0,0-.31-.17.32.32,0,0,0-.19,0l-.13.08a.79.79,0,0,0-.25.17A35.09,35.09,0,0,1,197,99.41a1.59,1.59,0,0,0-.26.26l-.08.1a.36.36,0,0,0-.05.41l.08.17c.07.13.12.24.19.35l.46.76,2.28,3.69a17.28,17.28,0,0,0,2.71,3.3,7.4,7.4,0,0,0,3.06,1.79,3.65,3.65,0,0,0,1,.14,2.69,2.69,0,0,0,1.16-.25,4.19,4.19,0,0,0,2.35-2.36,14.07,14.07,0,0,0,.44-1.35,46.86,46.86,0,0,0,1.2-5.49c.38-2.3.71-4.59,1-6.82A29.91,29.91,0,0,0,212.78,89.7Z"/><path class="cls-3" d="M166.64,103c-1.57-2.75-3.19-5.58-4.95-8.35l.48-.31,1.57-1,.74-.47c.51-.32,1-.66,1.55-1a.39.39,0,0,0,.09-.5l-.56-.84c-.41-.62-.8-1.2-1.16-1.82s-.72-1.26-1.09-1.94l-.48-.89a.37.37,0,0,0-.32-.19.47.47,0,0,0-.16,0l-.13.06a2.29,2.29,0,0,0-.31.16l-1.13.73c-1.24.8-2.52,1.62-3.77,2.45a11.34,11.34,0,0,0-1.52,1.26,2.8,2.8,0,0,0-.7,3.35l.08.17c.26.58.52,1.17.84,1.74l.5.89c.78,1.41,1.6,2.86,2.47,4.26,1.18,1.88,2.42,3.77,3.61,5.6l1.32,2a2.7,2.7,0,0,0,.29.35l.1.12a.39.39,0,0,0,.28.13l.1,0a11,11,0,0,0,3.92-2.54.36.36,0,0,0,0-.42Z"/><path class="cls-3" d="M169.43,177.56c-2.8,0-5.53-.18-8.26-.2a.6.6,0,0,1-.22-.09c0-.07-.06-.13,0-.18q4.89-29.64,9.78-59.22c.24-.27.48-.19.71-.18l5.82.45c1.65.12,3.31.25,5,.34,2.06.11,4.13.18,6.19.28l.72.06c.11.26.21.49.3.73a85,85,0,0,1,2.54,8.52c1.16,4.63,2.31,9.25,3.43,13.89,1.08,4.46,2,9,2.76,13.49.53,3.19,1,6.37,1.49,9.57.38,2.76.64,5.54,1,8.32.09.81.19,1.62.26,2.43a2.24,2.24,0,0,1,0,.93c-.19.21-.44.14-.66.15l-4.1.07c-.93,0-1.86.1-2.79.14h-.65a3.49,3.49,0,0,1-.11-.5c-.08-2.24-.42-4.46-.69-6.68-.55-4.56-1.36-9.08-2.28-13.59-.75-3.64-1.56-7.27-2.65-10.84-.6-2-1.25-3.93-2-5.86-1.29-3.46-2.65-6.9-4-10.34-.28-.73-.61-1.44-.93-2.16a4.09,4.09,0,0,0-.4-.67c-.15-.21-.37-.26-.69-.13a3.1,3.1,0,0,0-.19.5c-.36,1.94-.71,3.89-1.06,5.83-.61,3.35-1.21,6.7-1.82,10-.55,3-1.11,6.07-1.66,9.1q-.94,5.15-1.87,10.3c-.61,3.34-1.21,6.69-1.82,10l-.9,5C169.56,177.22,169.5,177.35,169.43,177.56Z"/><path class="cls-4" d="M202,93.14c-.55-.92-1.09-1.85-1.66-2.76a93.17,93.17,0,0,0-5.6-8.42,36.4,36.4,0,0,0-4.4-4.72,8.72,8.72,0,0,0-3.88-1.87,5.27,5.27,0,0,0-1.9-.09,14.73,14.73,0,0,0-3.46.86,69.25,69.25,0,0,0-7.69,3.51c-1.62.84-3.2,1.77-4.79,2.68s-3.26,1.91-4.88,2.88c-.22.12-.49.21-.59.55a26.26,26.26,0,0,0,5.64,8.07l3.77-2.48v-.06l.28,0a1.53,1.53,0,0,0,.28.59l0,.14q-.81,3.8-1.54,7.6c-.42,2.17-.8,4.34-1.18,6.52-.11.66-.19,1.32-.28,1.94.18.33.32.62.49.89a3.15,3.15,0,0,1-.79,4.15c-.14.1-.27.21-.44.35-.13.9-.27,1.82-.32,2.75a4.61,4.61,0,0,0,0,.51l.83.09,7.22.52,4.78.33c1.25.08,2.5.16,3.74.21,1.71.07,3.43.11,5.14.15a2.46,2.46,0,0,0,.47-.1,2.64,2.64,0,0,0,.05-.3q.09-3.36.16-6.72t.13-6.45c0-1,0-2,.07-3v-.12a2,2,0,0,0,.18-.48v0a2.26,2.26,0,0,0,0-.86c0-.12,0-.24,0-.36.27.57.53,1.15.77,1.74a3.48,3.48,0,0,0,.28.39,3.66,3.66,0,0,0,.37-.16,33.15,33.15,0,0,0,8-6.33,7.2,7.2,0,0,0,1.12-1.53C202.19,93.5,202.1,93.32,202,93.14Z"/><path class="cls-7" d="M187.59,68.11A14.18,14.18,0,0,1,186,71.2c-.35-.13-.32-.44-.43-.67s-.18-.49-.41-.64a.41.41,0,0,0-.54.17c-.25.36-.47.73-.71,1.09s-.23.54-.49.69c-.18,0-.17-.14-.2-.24a11.19,11.19,0,0,0-1.65-3.06,11.72,11.72,0,0,1-1.94-4.06A4.43,4.43,0,0,1,182,59.37a1.19,1.19,0,0,0,.85-1.3,2.13,2.13,0,0,1,1.57-2.16,10.06,10.06,0,0,1,1.79-.4,21.39,21.39,0,0,0,4.7-1.28,9.62,9.62,0,0,0,2.48-1.44,9,9,0,0,1,1.13-.81,4.75,4.75,0,0,1,1.05-.4.49.49,0,0,1,.54.2.48.48,0,0,1,0,.57c-.11.16-.22.32-.32.45a.37.37,0,0,0,.44.28c.43,0,.87-.07,1.3-.07a3.35,3.35,0,0,1,1,.13.94.94,0,0,1,.61,1.55c-.2.34-.51.62-.75,1a1.66,1.66,0,0,0-.19.41c.22.31.5.26.75.27a1.17,1.17,0,0,1,1,.39,1.93,1.93,0,0,1-.1.45,2.56,2.56,0,0,1-1.07,1,10.06,10.06,0,0,1-2.18.88l-5.22,1.4c-.25.06-.51.11-.76.19a2.1,2.1,0,0,0-.33.22,7.77,7.77,0,0,1,0,2.66C189.85,65.77,189.34,67.53,187.59,68.11Z"/><path class="cls-10" d="M189.21,72.14c-.5.94-.4,2.06-.79,3.09-.7-.18-1.35-.41-2-.52s-1.37-.09-2.07-.13c0,0-.08-.09-.07-.13a29.34,29.34,0,0,1,.75-3.08c.38.18.3.74.76.78a.74.74,0,0,0,.67-.46c.42-.7.82-1.41,1.22-2.12.18-.33.32-.67.49-1h.73c0-.13.09-.25.12-.35a.84.84,0,0,0-.13-.18l-.32-.14a1.5,1.5,0,0,1-.95-1.34,4,4,0,0,1,.4-2.29,2.13,2.13,0,0,1,.36-.49.7.7,0,0,1,1.08,0,2,2,0,0,1,.56,1.5,5.59,5.59,0,0,1-.06.64c.14.29.32.3.59.17a2.73,2.73,0,0,0,.19-.51,12.24,12.24,0,0,0,.22-2.77,6.13,6.13,0,0,1,0-1.6l2.9-.73c.06.09.12.16.16.23a10.27,10.27,0,0,1,.93,7.6,6.24,6.24,0,0,1-1.2,2.4,3.87,3.87,0,0,1-2.65,1.5,4.22,4.22,0,0,1-.87,0A2.37,2.37,0,0,0,189.21,72.14Z"/><path class="cls-10" d="M201.29,183.25a1.65,1.65,0,0,1-.88.48,15.94,15.94,0,0,1-3.77.59,2.29,2.29,0,0,1-.95-.18c-.21-2.11-.43-4.21-.64-6.36a25.54,25.54,0,0,1,2.91-.19,25.26,25.26,0,0,1,2.89,0,14.19,14.19,0,0,1,.29,2.87C201.25,181.37,201.25,182.33,201.29,183.25Z"/><path class="cls-10" d="M166.15,108.63l2.07-1.5a1.15,1.15,0,0,1,.28-.11,16.94,16.94,0,0,1,1.7,3,2.14,2.14,0,0,1-.51,2.18,1.93,1.93,0,0,1-.52.46,16.37,16.37,0,0,1-3.08,1.6,6.92,6.92,0,0,1-1.18.26,1.13,1.13,0,0,1-.83-.23,2.23,2.23,0,0,1-.92-1.7.49.49,0,0,1,.29-.5.62.62,0,0,1,.6.26,3.58,3.58,0,0,0,.57.53c.21.14.44.11.61-.2-.06-.13-.11-.28-.18-.43a1.34,1.34,0,0,1,.84-1.94,6.37,6.37,0,0,1,.69-.16,5.4,5.4,0,0,1,.23-.49,5.27,5.27,0,0,0-.3-.53A6.19,6.19,0,0,0,166.15,108.63Z"/><path class="cls-10" d="M167,178.3c0,.81-.13,1.56-.23,2.3s-.17,1.5-.26,2.28a1.33,1.33,0,0,1-.4.13l-4.62.13a1,1,0,0,1-.24,0,30.13,30.13,0,0,1,.79-4.9,6.75,6.75,0,0,1,1.62,0,15.33,15.33,0,0,1,1.66,0A14,14,0,0,1,167,178.3Z"/><path class="cls-2" d="M179.6,126.42a98.21,98.21,0,0,1,11.55,30.27c3.43,17.39,3.17,20.84,3.17,20.84h-2.07S191.06,151.22,179.6,126.42Z"/><polygon class="cls-2" points="194.32 177.53 201.29 177.18 201.29 178.48 195.05 180.93 194.32 177.53"/><path class="cls-2" d="M189.21,118.52l-15.55-1.08,1-32.87-3.48,4.53a3.64,3.64,0,0,1-4.87.85L164.4,88.7l-1.72-2.82.84,7.56,2.78-2,2.62,2.78,4-2.78-3,15.81-.42.41a2.23,2.23,0,0,1-.06,3.1,8.4,8.4,0,0,1-5.68,3.3c1.24,2.16,5-.9,5-.9v4l1.44.26-3,18.8-6.79,41.29h1.22l-.48,2.73,6.2-1.31,0-1.12-5.09-.3L172,125.15a6.14,6.14,0,0,1,5.74-5l11.43-.54.44-.1Z"/><path class="cls-2" d="M202.86,96.65s-1.61,3.81-4.77,5.28L196.34,100a26.05,26.05,0,0,0,5.53-4.94Z"/><path class="cls-5" d="M199.22,55.61c.23.1.44.18.64.29a1,1,0,0,1,.44,1.54,2.67,2.67,0,0,1-1,1.06,8.52,8.52,0,0,1-1.31.67c-.76.28-1.55.51-2.32.76l-1,.31a1,1,0,0,0,.2.67A11.52,11.52,0,0,1,195.91,66a9,9,0,0,1-.82,3.72,6.16,6.16,0,0,1-1.29,1.85,4.31,4.31,0,0,1-3.32,1.28l-.83,0a16.6,16.6,0,0,0-.53,2.69c.07.09.09.15.14.18a18.5,18.5,0,0,1,4,3.52,47.26,47.26,0,0,1,5.22,7c1.41,2.24,2.78,4.51,4.16,6.77.07.1.11.2.18.3a.84.84,0,0,1,0,1c-.15.21-.28.44-.44.68.44.87,1,1.66,1.47,2.47a20.65,20.65,0,0,0,1.58,2.41c.14-1,.28-1.89.39-2.77.19-1.48.35-3,.56-4.42.31-2.24.66-4.48,1-6.73.15-1.06.25-2.13.39-3.2.1-.78.23-1.55.34-2.33a2.18,2.18,0,0,1,.52-1.09,9.54,9.54,0,0,1,1.22-1.24,23.3,23.3,0,0,1,4.47-2.87c.36-.17.7-.41,1.08-.57a5.74,5.74,0,0,1,1.08-.29.81.81,0,0,1,.86.29.83.83,0,0,1-.06,1,3.36,3.36,0,0,1-1,1.07c-.83.59-1.52,1.35-2.28,2a.87.87,0,0,0-.13.19c.12.1.23.23.36.32.33.24.68.46,1,.71a3.59,3.59,0,0,1,.58.52,1.32,1.32,0,0,1,.2,1.62,5.76,5.76,0,0,1-.68,1c-.55.6-1.14,1.16-1.73,1.72-.29.29-.61.54-.92.81a8.39,8.39,0,0,0-.2,2.46l.6.28a.92.92,0,0,1,.21.75c-.07,1.4-.13,2.79-.22,4.18-.14,2.07-.47,4.11-.79,6.15a62.05,62.05,0,0,1-1.57,7.5,7.26,7.26,0,0,1-.84,1.91,4.1,4.1,0,0,1-3.32,2,3.78,3.78,0,0,1-1.28-.21,7.32,7.32,0,0,1-3.11-1.88,18,18,0,0,1-3-3.74l-2.47-4a5.07,5.07,0,0,0-.33-.45c-1.31.66-2.37,1.74-3.88,2.1-.17,1.72-.09,3.49-.12,5.26s-.11,3.6-.15,5.41,0,3.54-.06,5.26a.53.53,0,0,1-.52.34c-.29,0-.59,0-.88,0a5.3,5.3,0,0,0-.63.06,2.51,2.51,0,0,0,.07.45c1.72,4.8,2.85,9.77,4.09,14.7q1.53,6.09,2.88,12.22c.68,3.09,1.27,6.21,1.82,9.33q.78,4.42,1.38,8.87c.38,2.71.65,5.43.95,8.15.17,1.53.32,3.06.45,4.6.09,1,.14,2.09.21,3.13s.13,1.91.19,2.9l1,.25a12.63,12.63,0,0,1,5.16,2.45,7.59,7.59,0,0,1,1.8,2.11,3.08,3.08,0,0,1,.47,1.88.62.62,0,0,1-.59.36c-.2,0-.41,0-.61,0l-8.81,0c-1.43,0-2.85,0-4.28.06a1.39,1.39,0,0,1-1-.19,1.58,1.58,0,0,1-.08-.37c0-2.3-.12-4.59-.31-6.88-.11-1.33-.24-2.66-.38-4,0-.37-.14-.74-.21-1.15-.2,0-.37,0-.53,0l-1,.08a.85.85,0,0,1-1-.63,3.78,3.78,0,0,0,.06-1.68c-.14-1.44-.29-2.89-.47-4.33s-.39-3.12-.64-4.67c-.4-2.49-.81-5-1.27-7.48-.61-3.31-1.36-6.6-2.17-9.87a93.41,93.41,0,0,0-3.45-10.71c-1-2.66-2-5.32-3.07-8-.29-.73-.6-1.46-.9-2.18-.08-.18-.19-.35-.27-.52-.22.05-.24.2-.26.34l-1.26,7c-.49,2.71-1,5.43-1.49,8.14-.55,3-1.09,6-1.63,9L173,162.49q-.82,4.5-1.63,9c-.32,1.74-.63,3.49-.95,5.23-.08.46-.15.92-.23,1.43a1.39,1.39,0,0,1-.43.18c-.38,0-.75,0-1.13,0a1.35,1.35,0,0,0-.77.05,22.86,22.86,0,0,0-.6,4.52,4.84,4.84,0,0,0,.61.24,10,10,0,0,1,2.56,1.09,6.78,6.78,0,0,1,2.07,1.85,4.73,4.73,0,0,1,.93,3,2.38,2.38,0,0,1-.48,1.48,3,3,0,0,1-.42.05l-12.83-.24a.78.78,0,0,1-.24-.09.63.63,0,0,1-.19-.64c.1-.66.2-1.32.31-2,.49-2.89,1-5.79,1.47-8.68.05-.26.05-.52.08-.82l-1-.18a1.63,1.63,0,0,1-.06-.52c.3-1.83.61-3.67.91-5.5l1.14-6.89,1.14-6.88c.38-2.27.75-4.53,1.13-6.8.44-2.7.89-5.39,1.34-8.09.49-2.95,1-5.91,1.46-8.86s1-6,1.5-9c.4-2.47.81-4.93,1.21-7.4,0-.08,0-.17,0-.31l-1.45-.3a2.6,2.6,0,0,1-.1-.59c0-.61.11-1.22.17-1.82,0-.26,0-.52,0-.79,0,0,0-.1-.09-.2l-.77.38a9.09,9.09,0,0,1-2.45.89,2.1,2.1,0,0,1-1.5-.28,2.78,2.78,0,0,1-1.32-2.51,1.06,1.06,0,0,1,1.16-1.13l.26,0,.17,0a6.72,6.72,0,0,1,.67-1.1,6.49,6.49,0,0,1,1.06-.79l-.31-.36c-.43.12-.81.25-1.2.35a1.36,1.36,0,0,1-.38,0c-.15-.2-.32-.39-.46-.61-1.26-2-2.49-3.93-3.79-5.86-1.47-2.17-2.76-4.45-4-6.73-.41-.73-.74-1.51-1.11-2.27-.05-.1-.08-.22-.13-.33a2.89,2.89,0,0,1,.43-3,6.05,6.05,0,0,1,1-1,13.24,13.24,0,0,1,1.22-.85c4-2.55,7.94-5.16,12.08-7.49,2.44-1.36,4.88-2.7,7.41-3.89A38.78,38.78,0,0,1,182.52,75c.27-.08.55-.14.81-.21a7.17,7.17,0,0,0,.61-2.41c-.14.19-.24.33-.35.46s-.21.27-.34.43l-.37,0a1.52,1.52,0,0,1-.11-.2,7.14,7.14,0,0,0-1.49-3.75,17,17,0,0,1-1.43-2.3,12.2,12.2,0,0,1-.93-2.62,5.07,5.07,0,0,1,2.45-5.43c.22-.14.46-.25.72-.4,0-.18,0-.38.06-.58a2.83,2.83,0,0,1,2.12-2.69,12.52,12.52,0,0,1,2-.43,20,20,0,0,0,4.91-1.47,9.87,9.87,0,0,0,1.84-1.17,17.27,17.27,0,0,1,1.44-1,2.15,2.15,0,0,1,1.17-.29,1,1,0,0,1,1.09.81,5.56,5.56,0,0,1,.11.56c.22,0,.45,0,.67.06a6.85,6.85,0,0,1,1.2.21,1.52,1.52,0,0,1,.93,2.24A6.52,6.52,0,0,1,199.22,55.61Zm-29.79,122c.07-.21.13-.34.16-.48l.9-5c.61-3.35,1.21-6.7,1.82-10s1.24-6.87,1.87-10.3c.55-3,1.11-6.06,1.66-9.1.61-3.34,1.21-6.69,1.82-10,.35-1.94.7-3.89,1.06-5.83a3.1,3.1,0,0,1,.19-.5c.32-.13.54-.08.69.13a4.09,4.09,0,0,1,.4.67c.32.72.65,1.43.93,2.16,1.34,3.44,2.7,6.88,4,10.34.72,1.93,1.37,3.89,2,5.86,1.09,3.57,1.9,7.2,2.65,10.84.92,4.51,1.73,9,2.28,13.59.27,2.22.61,4.44.69,6.68a3.49,3.49,0,0,0,.11.5h.65c.93,0,1.86-.11,2.79-.14l4.1-.07c.22,0,.47.06.66-.15a2.24,2.24,0,0,0,0-.93c-.07-.81-.17-1.62-.26-2.43-.31-2.78-.57-5.56-1-8.32-.44-3.2-1-6.38-1.49-9.57-.75-4.53-1.68-9-2.76-13.49-1.12-4.64-2.27-9.26-3.43-13.89a85,85,0,0,0-2.54-8.52c-.09-.24-.19-.47-.3-.73l-.72-.06c-2.06-.1-4.13-.17-6.19-.28-1.65-.09-3.31-.22-5-.34l-5.82-.45c-.23,0-.47-.09-.71.18q-4.89,29.53-9.78,59.22s0,.11,0,.18a.6.6,0,0,0,.22.09C163.9,177.38,166.63,177.59,169.43,177.56ZM202.3,93.72c-.11-.22-.2-.4-.3-.58-.55-.92-1.09-1.85-1.66-2.76a93.17,93.17,0,0,0-5.6-8.42,36.4,36.4,0,0,0-4.4-4.72,8.72,8.72,0,0,0-3.88-1.87,5.27,5.27,0,0,0-1.9-.09,14.73,14.73,0,0,0-3.46.86,69.25,69.25,0,0,0-7.69,3.51c-1.62.84-3.2,1.77-4.79,2.68s-3.26,1.91-4.88,2.88c-.22.12-.49.21-.59.55a26.26,26.26,0,0,0,5.64,8.07l3.77-2.48c.07-.25.15-.49.21-.75.29-1.18.57-2.37.87-3.55a17.48,17.48,0,0,0,.47-2.48,2.11,2.11,0,0,1,0-.35c0-.18.15-.22.5-.14,0,.15,0,.32,0,.49a8.74,8.74,0,0,1-.32,2.15c-.43,1.78-.9,3.55-1.29,5.34q-.81,3.8-1.54,7.6c-.42,2.17-.8,4.34-1.18,6.52-.11.66-.19,1.32-.28,1.94.18.33.32.62.49.89a3.15,3.15,0,0,1-.79,4.15c-.14.1-.27.21-.44.35-.13.9-.27,1.82-.32,2.75a4.61,4.61,0,0,0,0,.51l.83.09,7.22.52,4.78.33c1.25.08,2.5.16,3.74.21,1.71.07,3.43.11,5.14.15a2.46,2.46,0,0,0,.47-.1,2.64,2.64,0,0,0,.05-.3q.09-3.36.16-6.72t.13-6.45c0-1,0-2,.07-3a2.3,2.3,0,0,0-.24-1.18c-.27-.55-.51-1.11-.77-1.66l-3.07-6.36a7.18,7.18,0,0,1-.32-.81.31.31,0,0,1,.22-.41c.33,0,.38.32.49.55,1.5,3.27,3.22,6.44,4.62,9.77a3.48,3.48,0,0,0,.28.39,3.66,3.66,0,0,0,.37-.16,33.15,33.15,0,0,0,8-6.33A7.2,7.2,0,0,0,202.3,93.72ZM195.71,52.8c.1-.13.21-.29.32-.45a.48.48,0,0,0,0-.57.49.49,0,0,0-.54-.2,4.75,4.75,0,0,0-1.05.4,9,9,0,0,0-1.13.81,9.62,9.62,0,0,1-2.48,1.44,21.39,21.39,0,0,1-4.7,1.28,10.06,10.06,0,0,0-1.79.4,2.13,2.13,0,0,0-1.57,2.16,1.19,1.19,0,0,1-.85,1.3,4.43,4.43,0,0,0-2.36,5.11,11.72,11.72,0,0,0,1.94,4.06,11.19,11.19,0,0,1,1.65,3.06c0,.1,0,.24.2.24.26-.15.33-.45.49-.69s.46-.73.71-1.09a.41.41,0,0,1,.54-.17c.23.15.29.41.41.64s.08.54.43.67a14.18,14.18,0,0,0,1.62-3.09,3.06,3.06,0,0,1-.64-1.49,4.61,4.61,0,0,1,.49-2.71,2.82,2.82,0,0,1,.67-.79,1.19,1.19,0,0,1,1.46-.07c.21.13.41.29.62.45a7.77,7.77,0,0,0,0-2.66,2.1,2.1,0,0,1,.33-.22c.25-.08.51-.13.76-.19l5.22-1.4a10.06,10.06,0,0,0,2.18-.88,2.56,2.56,0,0,0,1.07-1,1.93,1.93,0,0,0,.1-.45,1.17,1.17,0,0,0-1-.39c-.25,0-.53,0-.75-.27a1.66,1.66,0,0,1,.19-.41c.24-.33.55-.61.75-1a.94.94,0,0,0-.61-1.55,3.35,3.35,0,0,0-1-.13c-.43,0-.87.05-1.3.07A.37.37,0,0,1,195.71,52.8Zm6.11,42.86a1.58,1.58,0,0,0-.3.19,35.44,35.44,0,0,1-4.27,3.85,2.16,2.16,0,0,0-.29.31c.1.19.17.35.26.5.91,1.48,1.82,3,2.74,4.45a16.11,16.11,0,0,0,2.66,3.22,7,7,0,0,0,2.9,1.71,2.67,2.67,0,0,0,1.87-.09,3.82,3.82,0,0,0,2.16-2.16c.17-.43.3-.88.43-1.32a46,46,0,0,0,1.19-5.45q.56-3.39,1-6.81a30.07,30.07,0,0,0,.27-4.35c0-.25,0-.51,0-.78a5.11,5.11,0,0,0-1.58-.17c-.55-.05-1.1-.05-1.66-.05a3.39,3.39,0,0,0-1.54.18,4.5,4.5,0,0,0-.1.44l-.33,2.51c-.12.92-.25,1.84-.37,2.76-.16,1.21-.31,2.42-.46,3.63a13.87,13.87,0,0,0-.22,2.89c.19.27.38.56.57.85s.37.52.54.8a.87.87,0,0,1,.05.27l-.33.29a2.7,2.7,0,0,1-.43-.35,7.22,7.22,0,0,1-.56-.77q-1.53-2.38-3-4.79Zm-40.63-1.08,2.35-1.52c.75-.49,1.52-1,2.27-1.5-.59-.92-1.19-1.77-1.72-2.67s-1-1.87-1.58-2.84a3,3,0,0,0-.4.2c-1.64,1-3.28,2.09-4.9,3.18a11.25,11.25,0,0,0-1.47,1.21,2.41,2.41,0,0,0-.61,2.94,20.3,20.3,0,0,0,.9,1.88c1,1.73,1.91,3.46,3,5.13,1.6,2.57,3.27,5.08,4.92,7.61a5.48,5.48,0,0,0,.37.43A10.7,10.7,0,0,0,168,106.2C165.8,102.35,163.66,98.43,161.19,94.58Zm28-22.44a2.37,2.37,0,0,1,1,0,4.22,4.22,0,0,0,.87,0,3.87,3.87,0,0,0,2.65-1.5,6.24,6.24,0,0,0,1.2-2.4,10.27,10.27,0,0,0-.93-7.6c0-.07-.1-.14-.16-.23l-2.9.73a6.13,6.13,0,0,0,0,1.6,12.24,12.24,0,0,1-.22,2.77,2.73,2.73,0,0,1-.19.51c-.27.13-.45.12-.59-.17a5.59,5.59,0,0,0,.06-.64,2,2,0,0,0-.56-1.5.7.7,0,0,0-1.08,0,2.13,2.13,0,0,0-.36.49,4,4,0,0,0-.4,2.29,1.5,1.5,0,0,0,.95,1.34l.32.14a.84.84,0,0,1,.13.18c0,.1-.08.22-.12.35h-.73c-.17.36-.31.7-.49,1-.4.71-.8,1.42-1.22,2.12a.74.74,0,0,1-.67.46c-.46,0-.38-.6-.76-.78a29.34,29.34,0,0,0-.75,3.08s.05.09.07.13c.7,0,1.39,0,2.07.13s1.33.34,2,.52C188.81,74.2,188.71,73.08,189.21,72.14Zm-27,22.64.19.37c1.11,1.87,2.23,3.74,3.33,5.63s2.21,3.82,3.33,5.73c.11.19.16.45.48.51.79-4.82,1.73-9.6,2.7-14.39,0,0,0-.1-.06-.21a3,3,0,0,0-.44.22l-2.6,1.77a.64.64,0,0,1-.64.16c-.59-.65-1.23-1.36-1.88-2.06a4.72,4.72,0,0,0-.43-.37A32.47,32.47,0,0,0,162.25,94.78Zm10.26,95a3.61,3.61,0,0,0-.35-2.86,5.28,5.28,0,0,0-1.37-1.57,8.38,8.38,0,0,0-2.86-1.44,3.83,3.83,0,0,0-1.11-.17c-1.62,0-3.25.05-4.88.09-.31,0-.62.07-.9.1-.06.11-.11.15-.12.2-.3,1.75-.59,3.49-.88,5.24a.28.28,0,0,0,0,.09s0,0,.11.1c3,.2,6.09.14,9.16.22C170.36,189.84,171.4,189.87,172.51,189.82Zm23.38-.2h1l6.72,0H209a5.21,5.21,0,0,0,.67-.06,2.14,2.14,0,0,0-.45-1.34,7.59,7.59,0,0,0-1.51-1.69,12.43,12.43,0,0,0-5.84-2.49,14.48,14.48,0,0,1-5.83,1,1.73,1.73,0,0,0-.33.1C195.8,186.61,195.75,188.06,195.89,189.62Zm16.52-111a4,4,0,0,0,.82-.44c.94-.78,1.86-1.58,2.77-2.39a1.31,1.31,0,0,0,.54-.71.78.78,0,0,0-.33,0,5.14,5.14,0,0,0-.9.33,30.09,30.09,0,0,0-5.08,3.19c-.25.2-.48.42-.71.64a2.59,2.59,0,0,0-.79,1.52c-.12.89-.27,1.77-.4,2.67L207.85,87c0,.31-.07.62-.11.92a21.79,21.79,0,0,0,3.78,0,4.75,4.75,0,0,0,.17-1.63,2,2,0,0,1,.86-1.71,4,4,0,0,0,.67-.56c.51-.51,1-1,1.51-1.56a2.5,2.5,0,0,0,.62-1.09,1.28,1.28,0,0,0-.63-.85c-.57-.4-1.16-.77-1.75-1.14-.14-.09-.31-.15-.45-.25A.35.35,0,0,1,212.41,78.66ZM201.29,183.25c0-.92,0-1.88-.15-2.82a14.19,14.19,0,0,0-.29-2.87,25.26,25.26,0,0,0-2.89,0,25.54,25.54,0,0,0-2.91.19c.21,2.15.43,4.25.64,6.36a2.29,2.29,0,0,0,.95.18,15.94,15.94,0,0,0,3.77-.59A1.65,1.65,0,0,0,201.29,183.25Zm-35.14-74.62a6.19,6.19,0,0,1,.36.52,5.27,5.27,0,0,1,.3.53,5.4,5.4,0,0,0-.23.49,6.37,6.37,0,0,0-.69.16,1.34,1.34,0,0,0-.84,1.94c.07.15.12.3.18.43-.17.31-.4.34-.61.2a3.58,3.58,0,0,1-.57-.53.62.62,0,0,0-.6-.26.49.49,0,0,0-.29.5,2.23,2.23,0,0,0,.92,1.7,1.13,1.13,0,0,0,.83.23,6.92,6.92,0,0,0,1.18-.26,16.37,16.37,0,0,0,3.08-1.6,1.93,1.93,0,0,0,.52-.46,2.14,2.14,0,0,0,.51-2.18,16.94,16.94,0,0,0-1.7-3,1.15,1.15,0,0,0-.28.11Zm.8,69.67a14,14,0,0,0-1.68-.08,15.33,15.33,0,0,0-1.66,0,6.75,6.75,0,0,0-1.62,0,30.13,30.13,0,0,0-.79,4.9,1,1,0,0,0,.24,0l4.62-.13a1.33,1.33,0,0,0,.4-.13c.09-.78.16-1.53.26-2.28S166.9,179.11,167,178.3Z"/><path class="cls-4" d="M169.86,62.72a8.41,8.41,0,0,0-3.8-3.12c.41-.35.76-.6,1.06-.91a5.71,5.71,0,0,0,.74-1c.22-.37.38-.78.57-1.17.68.49,1.32,1,2,1.43a11.53,11.53,0,0,0,2.28,1c-.3.33-.56.59-.8.87s-.53.62-.77.95-.42.62-.64.94A5.2,5.2,0,0,1,169.86,62.72Z"/><path class="cls-4" d="M174.25,51.41c.27-.38.54-.72.76-1.09s.4-.76.61-1.15c.47.31.91.64,1.39.9a15.67,15.67,0,0,0,1.48.64c-.2.46-.59.78-.82,1.21L177,53.24a8.16,8.16,0,0,0-.77-.78,5.43,5.43,0,0,0-.93-.63A10.37,10.37,0,0,0,174.25,51.41Z"/><path class="cls-4" d="M174,71l-.78-.78.72-.89.79.8A5.33,5.33,0,0,1,174,71Z"/><path class="cls-5" d="M174.21,58.76a2.28,2.28,0,0,1-.33.36,9.52,9.52,0,0,0-3.63,5,1.13,1.13,0,0,1-.13.32c-.06.09-.16.2-.25.21a1.23,1.23,0,0,1-.4-.13,3.29,3.29,0,0,0-1.3-2.66A7.4,7.4,0,0,0,165,60.06a2.68,2.68,0,0,1-.47-.18s-.07-.09-.11-.14a.48.48,0,0,1,.26-.5,1.42,1.42,0,0,1,.4-.17,3.87,3.87,0,0,0,2.69-3.41c0-.26.05-.52.07-.81l.47-.09c.07.08.13.11.15.16a4.29,4.29,0,0,0,1.63,2,7.4,7.4,0,0,0,3.51,1.41,1.12,1.12,0,0,1,.47.18C174.14,58.54,174.16,58.65,174.21,58.76Zm-4.35,4a5.2,5.2,0,0,0,.63-1c.22-.32.41-.64.64-.94s.5-.64.77-.95.5-.54.8-.87a11.53,11.53,0,0,1-2.28-1c-.67-.45-1.31-.94-2-1.43-.19.39-.35.8-.57,1.17a5.71,5.71,0,0,1-.74,1c-.3.31-.65.56-1.06.91A8.41,8.41,0,0,1,169.86,62.72Z"/><path class="cls-5" d="M177.34,54.9l-.28.17a.48.48,0,0,1-.44-.39,5,5,0,0,0-.2-.66,3.15,3.15,0,0,0-2.56-1.85c-.23,0-.47,0-.69-.05a.43.43,0,0,1-.39-.41c0-.27.24-.38.43-.51a4.07,4.07,0,0,0,1.38-1.64,2.59,2.59,0,0,0,.34-1.59,1.17,1.17,0,0,1,.07-.38.44.44,0,0,1,.59,0,.45.45,0,0,1,.1.14A4.27,4.27,0,0,0,178.86,50l.87.21c0,.17.08.33.13.51A6.23,6.23,0,0,0,177.34,54.9Zm-3.09-3.49a10.37,10.37,0,0,1,1,.42,5.43,5.43,0,0,1,.93.63,8.16,8.16,0,0,1,.77.78l.72-1.32c.23-.43.62-.75.82-1.21a15.67,15.67,0,0,1-1.48-.64c-.48-.26-.92-.59-1.39-.9-.21.39-.38.79-.61,1.15S174.52,51,174.25,51.41Z"/><path class="cls-5" d="M171.88,70l.44-.16a1.66,1.66,0,0,0,1-1,3.47,3.47,0,0,1,.26-.55A2.07,2.07,0,0,1,174,68c.16.14.37.24.44.4a3.1,3.1,0,0,0,1.22,1.43l.06.06a.43.43,0,0,1,0,.62,1.06,1.06,0,0,1-.2.17,3.35,3.35,0,0,0-1.12,1.3l-.21.32-.44,0c-.08-.08-.14-.12-.15-.17a2,2,0,0,0-1.43-1.49.71.71,0,0,1-.22-.13C171.84,70.46,171.83,70.37,171.88,70ZM174,71a5.33,5.33,0,0,0,.73-.87l-.79-.8-.72.89Z"/><path class="cls-5" d="M189.65,129.36l-.35.31c-.35-.11-.42-.36-.5-.61-.29-.82-.58-1.65-.86-2.47-.53-1.53-1.07-3.07-1.59-4.61-.1-.27-.17-.54-.26-.83l.37-.33a2.67,2.67,0,0,1,.34.29,1.27,1.27,0,0,1,.13.32c.86,2.5,1.73,5,2.59,7.49C189.57,129.06,189.6,129.2,189.65,129.36Z"/><path class="cls-5" d="M266.4,192.77a2.61,2.61,0,0,1-2.42-1.43,3.27,3.27,0,0,1,.17-3.63,2.66,2.66,0,0,1,2.62-1.24,2.71,2.71,0,0,1,2.26,1.69,3.4,3.4,0,0,1-.74,3.86A2.62,2.62,0,0,1,266.4,192.77Zm2.15-3.15a2.28,2.28,0,0,0-.56-1.7,1.88,1.88,0,0,0-2.19-.59,2.33,2.33,0,0,0-1.49,2.08,2.31,2.31,0,0,0,1.2,2.41,1.79,1.79,0,0,0,1.83,0A2.38,2.38,0,0,0,268.55,189.62Z"/><path class="cls-5" d="M237.51,193.12a2.68,2.68,0,0,1-2.47-1.35,3.42,3.42,0,0,1,.27-3.91,2.75,2.75,0,0,1,4.61.41,3.41,3.41,0,0,1-.6,4.09A2.58,2.58,0,0,1,237.51,193.12Zm2.08-3.51a2.23,2.23,0,0,0-.7-1.47,1.83,1.83,0,0,0-2.08-.46,2.55,2.55,0,0,0-.27,4.49,1.77,1.77,0,0,0,1.82,0A2.66,2.66,0,0,0,239.59,189.61Z"/><path class="cls-11" d="M235.5,145.09c-.06-1.08.26-6.65.42-7.37.49,0,1-.09,1.52-.1,2-.05,4-.07,5.93-.12q3.4-.08,6.8-.18l5.41-.17,6.71-.18,1.56-.09a2.92,2.92,0,0,1,.51,0,1.79,1.79,0,0,1,0,.3c-.23,1.22-.28,2.48-.58,3.7a23.75,23.75,0,0,0-.5,3.35c0,.2-.07.4-.1.58a1.76,1.76,0,0,1-1,.14l-6.63,0-19.1.08Z"/><path class="cls-4" d="M264.93,139.49c2.44-.18,4.9-.21,7.3-.17a.39.39,0,0,1,.14.45c-.4,1.58-.67,3.19-1.22,4.73a2.68,2.68,0,0,1-.12.3,40.67,40.67,0,0,1-6.27.17c-.22,0-.45-.05-.66-.07A26.22,26.22,0,0,1,264.93,139.49Z"/><path class="cls-12" d="M222,139.11a7,7,0,0,1-.75.21c-1.23.2-2.47.35-3.72.43s-2.37.23-3.55.34-2.08.19-3.12.25a4.06,4.06,0,0,1-1-.14.69.69,0,0,1-.47-.47.5.5,0,0,1,.17-.62,1,1,0,0,1,.23-.13,13.54,13.54,0,0,1,4-1.12c.49,0,1-.14,1.47-.19.72-.07,1.44-.15,2.17-.16,1.07,0,2.14,0,3.22,0a1.73,1.73,0,0,1,1.25.54A.77.77,0,0,1,222,139.11Z"/><polygon class="cls-2" points="268.25 138.92 267.57 145.09 264.1 144.9 264.93 139.49 268.25 138.92"/><polygon class="cls-2" points="235.59 141.87 264.38 140.98 263.69 145.71 234.54 145.08 235.59 141.87"/><path class="cls-3" d="M268.55,189.62a2.38,2.38,0,0,1-1.21,2.16,1.79,1.79,0,0,1-1.83,0,2.31,2.31,0,0,1-1.2-2.41,2.33,2.33,0,0,1,1.49-2.08,1.88,1.88,0,0,1,2.19.59A2.28,2.28,0,0,1,268.55,189.62Zm-1.42-.1c0-.35-.17-.57-.42-.6a.71.71,0,0,0-.75.45.65.65,0,0,0,.41.83.62.62,0,0,0,.73-.46C267.12,189.66,267.12,189.57,267.13,189.52Z"/><path class="cls-3" d="M239.59,189.61a2.66,2.66,0,0,1-1.23,2.52,1.77,1.77,0,0,1-1.82,0,2.55,2.55,0,0,1,.27-4.49,1.83,1.83,0,0,1,2.08.46A2.23,2.23,0,0,1,239.59,189.61Zm-1.47.32a.81.81,0,0,0-.61-.75.69.69,0,0,0-.74.68.63.63,0,0,0,.52.7A.82.82,0,0,0,238.12,189.93Z"/><path class="cls-5" d="M235.91,185.86a1.69,1.69,0,0,1-.37-.87c-.7-2.85-1.38-5.71-2.09-8.56-1-4.06-1.94-8.14-3.09-12.17-.36-1.26-.63-2.54-1-3.8-.57-2.1-1.17-4.2-1.75-6.3-.69-2.47-1.37-4.93-2-7.4q-.77-2.77-1.54-5.54a12.23,12.23,0,0,0-.4-1.16,1.35,1.35,0,0,0-.59-.81c-.05,0-.09,0-.1,0a2.94,2.94,0,0,1-2,.86c-1.29.17-2.59.33-3.9.39-.78,0-1.56.16-2.34.25a32.48,32.48,0,0,1-4.18.27,4.2,4.2,0,0,1-.93-.15,1.4,1.4,0,0,1-.16-2.57,18.61,18.61,0,0,1,2-.75,12,12,0,0,1,1.87-.4c1.29-.17,2.59-.34,3.9-.42,1.07-.06,2.15,0,3.23,0a2.55,2.55,0,0,1,1.77.61,11.47,11.47,0,0,1,.81,1,2.53,2.53,0,0,1,1.44,1.81c.37,1.22.71,2.45,1.06,3.68.07.25.12.51.2.76.14.45.27.54.76.55s1.22,0,1.83,0l5,0,1.24,0a2.4,2.4,0,0,0,.13-.53c.13-1.91.24-3.83.37-5.74,0-.49.12-1,.17-1.4a.78.78,0,0,1,.73-.35c1.22-.06,2.44-.13,3.66-.17,2.3-.08,4.6-.13,6.9-.2,2.61-.09,5.23-.2,7.84-.28l7.77-.24,2.27-.09a.72.72,0,0,1,.72.26c-.07.75-.13,1.53-.21,2.35a2.05,2.05,0,0,0,.51.08c1.54-.19,3.08-.13,4.62-.18l2-.07a2.72,2.72,0,0,1,1.1.15.53.53,0,0,1,.2.55c-.39,1.58-.77,3.17-1.15,4.75-.07.28-.16.55-.25.88a4,4,0,0,0,.54.07H275a.56.56,0,0,1,.61.32,5.2,5.2,0,0,1-.38,1.2L266,166.57c-.14.31-.31.62-.46.93-.24,0-.44.06-.64.07-1.34,0-2.68,0-4,.06l-7.42.14-10,.21-8.38.17-2.27.08c-.14,0-.28,0-.47.07a2.37,2.37,0,0,0,.13.85c.52,2.15,1.05,4.29,1.57,6.44.69,2.82,1.37,5.65,2.05,8.47.09.37.21.73.31,1.06a1.48,1.48,0,0,0,.89.11l7.15-.15c1.23,0,2.45,0,3.67-.05l8.72-.17,8.73-.18a4.1,4.1,0,0,1,.7,0c.12,0,.22.15.31.21a.41.41,0,0,1-.37.45,3.14,3.14,0,0,1-.53,0l-8.2.17c-1.13,0-2.27,0-3.4.05l-8.64.17-8.64.17A1.54,1.54,0,0,1,235.91,185.86Zm-.41-40.77h1l19.1-.08,6.63,0a1.76,1.76,0,0,0,1-.14c0-.18.08-.38.1-.58a23.75,23.75,0,0,1,.5-3.35c.3-1.22.35-2.48.58-3.7a1.79,1.79,0,0,0,0-.3,2.92,2.92,0,0,0-.51,0l-1.56.09-6.71.18-5.41.17q-3.39.1-6.8.18c-2,.05-4,.07-5.93.12-.51,0-1,.07-1.52.1C235.76,138.44,235.44,144,235.5,145.09Zm34.57,10.81q2.25-4.91,4.51-9.88a.64.64,0,0,0,0-.24c-.24-.22-.51-.14-.76-.14l-4.62.06h-2.62c-.16,0-.33.05-.53.08-.15,3.3-.2,6.54-.24,9.8a1.08,1.08,0,0,0,.07.31A19.17,19.17,0,0,0,270.07,155.9Zm-15.64,0a42.29,42.29,0,0,0,4.75.08,2.11,2.11,0,0,0,.38-.11c0-1.14.06-2.26.07-3.39s0-2.21,0-3.32.08-2.25,0-3.44c-.65,0-1.26,0-1.86,0s-1.17,0-1.75,0a8.21,8.21,0,0,0-1.79.08C254.12,146.84,254.26,155,254.43,155.91Zm-17.2.92a1,1,0,0,0-.22-.07h-4.45a1.32,1.32,0,0,0-.35.12v.88l0,5.32v3.67a.87.87,0,0,0,.19.71c.76,0,1.57,0,2.38,0a14.34,14.34,0,0,0,2.44-.09c0-.23.05-.43.05-.63C237.38,162.36,237.34,157.69,237.23,156.83Zm22.21,10c0-.5,0-1,0-1.42,0-1.78,0-3.55,0-5.32,0-.9,0-1.8.05-2.71a4.17,4.17,0,0,0-.08-.63c-.88,0-1.72,0-2.56,0a15.37,15.37,0,0,0-2.53.07,4.57,4.57,0,0,0-.05.46l.15,9.33a2,2,0,0,0,.1.37A35.44,35.44,0,0,0,259.44,166.83Zm-5.77.17c0-.24.05-.44.05-.63,0-2.91-.05-5.81-.09-8.71a1.5,1.5,0,0,0-.15-.87c-.13,0-.27,0-.42,0l-4.09,0c-.05,0-.1,0-.15.08a.47.47,0,0,0-.06.15q-.09,4.6-.15,9.23c0,.23,0,.46,0,.69,0,0,0,.05,0,.08l.05.06A39.73,39.73,0,0,0,253.67,167Zm-16.38-11.13c0-.27,0-.56,0-.85,0-1.08,0-2.15,0-3.23v-5.41a4,4,0,0,0-.08-.53,12.06,12.06,0,0,0-1.69,0c-.55,0-1.1,0-1.65,0a12.63,12.63,0,0,0-1.63.1,1.17,1.17,0,0,0-.08.29c0,3.14,0,6.29,0,9.43a1.08,1.08,0,0,0,.08.26,1.32,1.32,0,0,0,.33.08H237A1.26,1.26,0,0,0,237.29,155.87ZM247.85,167c0-.24,0-.49,0-.75,0-.76,0-1.51,0-2.27q0-3.36,0-6.71a4.16,4.16,0,0,0-.08-.54c-.8,0-1.55,0-2.3,0a11.6,11.6,0,0,0-2.35.08c0,.21,0,.38,0,.55,0,1.65-.08,3.31-.1,5,0,1.39,0,2.79,0,4.18,0,.23,0,.47.14.66A18.65,18.65,0,0,0,247.85,167ZM243.2,155.9a23.43,23.43,0,0,0,4.75,0c0-.82.07-1.66.09-2.49s0-1.69,0-2.53,0-1.68,0-2.52a13.53,13.53,0,0,0,0-2.54,14.28,14.28,0,0,0-1.59,0c-.52,0-1.05,0-1.57,0a7.73,7.73,0,0,0-1.58.07c-.12,1.26,0,2.47-.07,3.68C243.19,151.64,243.15,153.75,243.2,155.9Zm17.12,0A6.86,6.86,0,0,0,262,156c.49,0,1,0,1.48,0a4.14,4.14,0,0,0,1.56-.12c.26-3.28.13-6.56.3-9.83a.94.94,0,0,0-.09-.27,5.65,5.65,0,0,0-1.54-.07q-.82,0-1.65,0a4.3,4.3,0,0,0-1.55.11C260.36,149.19,260.33,152.51,260.32,155.91Zm-11.39-10.12c-.16.91-.23,9.2-.09,10.12a1.67,1.67,0,0,0,.32.08h4.09a.9.9,0,0,0,.23-.08c0-.08.06-.13.06-.18q0-4.71-.08-9.42a2.6,2.6,0,0,0-.11-.51Zm11.38,11.05c0,.33,0,.62,0,.91q-.06,3-.1,6.09c0,.84,0,1.69,0,2.53a2.51,2.51,0,0,0,.11.53c1.39,0,2.76,0,4.12-.07a1.92,1.92,0,0,0,.41-.13c0-.32,0-.61,0-.9,0-1.33.05-2.67.08-4,0-1.51.08-3,.11-4.53a1.86,1.86,0,0,0-.09-.47A34,34,0,0,0,260.31,156.84ZM242.39,156c0-.29.07-.49.07-.69,0-.43,0-.87,0-1.3q0-3.66.05-7.32c0-.28.1-.59-.18-.87-1.3,0-2.63,0-4,.05-.08,0-.15.08-.21.11-.11,1-.11,9.25,0,9.94.05,0,.1.08.15.08,1.1,0,2.2,0,3.31,0C241.85,156,242.07,156,242.39,156Zm-.11,11.29a3.54,3.54,0,0,0,.05-.45c0-3.19,0-6.39.07-9.58a2.93,2.93,0,0,0-.07-.45c-.74-.05-1.44,0-2.13,0a8.27,8.27,0,0,0-2,.08,1.49,1.49,0,0,0-.06.29l0,9.85a1.64,1.64,0,0,0,.12.4C239.56,167.31,240.89,167.37,242.28,167.25Zm22.65-27.76a26.22,26.22,0,0,0-.83,5.41c.21,0,.44.07.66.07a40.67,40.67,0,0,0,6.27-.17,2.68,2.68,0,0,0,.12-.3c.55-1.54.82-3.15,1.22-4.73a.39.39,0,0,0-.14-.45C269.83,139.28,267.37,139.31,264.93,139.49ZM226.19,146a6.55,6.55,0,0,0,.12.71l2.4,8.56c.07.24.17.48.25.68a5.3,5.3,0,0,0,2.48-.09c0-.19,0-.39,0-.59V153.5q0-3.36,0-6.72c0-.28.08-.59-.13-.83-.57-.08-3.75-.13-4.8-.07C226.43,145.89,226.33,145.94,226.19,146ZM222,139.11a.77.77,0,0,0-.13-1,1.73,1.73,0,0,0-1.25-.54c-1.08,0-2.15,0-3.22,0-.73,0-1.45.09-2.17.16-.49.05-1,.15-1.47.19a13.54,13.54,0,0,0-4,1.12,1,1,0,0,0-.23.13.5.5,0,0,0-.17.62.69.69,0,0,0,.47.47,4.06,4.06,0,0,0,1,.14c1-.06,2.08-.15,3.12-.25s2.36-.27,3.55-.34,2.49-.23,3.72-.43A7,7,0,0,0,222,139.11Zm43.6,26,.16,0c.12-.22.24-.45.35-.68l3.19-7c.1-.22.28-.44.2-.71a17.6,17.6,0,0,0-3.64,0s-.08.1-.08.15q-.1,3.82-.2,7.65A4.35,4.35,0,0,0,265.62,165.15Zm-36.41-8.34c0,.27.07.44.11.6l1.08,4c.26,1,.5,2,.77,2.95.05.19,0,.43.36.52,0-2.63,0-5.24-.07-7.85a.72.72,0,0,0-.1-.26A8.16,8.16,0,0,0,229.21,156.81Z"/><path class="cls-5" d="M267.13,189.52s0,.14,0,.22a.62.62,0,0,1-.73.46.65.65,0,0,1-.41-.83.71.71,0,0,1,.75-.45C267,189,267.13,189.17,267.13,189.52Z"/><path class="cls-5" d="M238.12,189.93a.82.82,0,0,1-.83.63.63.63,0,0,1-.52-.7.69.69,0,0,1,.74-.68A.81.81,0,0,1,238.12,189.93Z"/><path class="cls-13" d="M193.49,54.25a.8.8,0,0,0-.47.22,8.54,8.54,0,0,1-2.22.63,1.74,1.74,0,0,0-1.43.7,1.16,1.16,0,0,0,0,1.24,2.08,2.08,0,0,0,1.72.53c1.08,0,2.64-.27,3.34-1.19A1.29,1.29,0,0,0,193.49,54.25Z"/><path class="cls-13" d="M187.42,57.16a.42.42,0,0,0-.58-.06.68.68,0,0,0-.52,1.2C187.07,58.93,188,57.9,187.42,57.16Z"/><path class="cls-13" d="M212.76,80.67a3.2,3.2,0,0,0-.66-1.33,1,1,0,0,0-.49-.21.37.37,0,0,0-.46-.08,4.74,4.74,0,0,0-1.57,1.28.39.39,0,0,0,.27.65l2.54.17A.39.39,0,0,0,212.76,80.67Z"/><path class="cls-13" d="M166.24,110.9l-.1.19c-.22.43.44.82.66.38l.1-.19C167.12,110.85,166.46,110.46,166.24,110.9Z"/><path class="cls-13" d="M240.53,79c-.18-1.32-1.23-1.59-1.93-1a.75.75,0,0,0-.39.54,1.88,1.88,0,0,0-.15.38.68.68,0,0,0,.06.53c-.13,1.57-.28,3.13-.33,4.7a2.59,2.59,0,0,0,1.28,2.69.79.79,0,0,0,.92-.12c.67-.8.54-1.7.54-2.7A38.83,38.83,0,0,0,240.53,79Z"/><path class="cls-13" d="M241,65.17a.79.79,0,0,0-.67-.74.82.82,0,0,0-.36-.23.78.78,0,0,0-.94.53,1.32,1.32,0,0,0,.89,1.7.78.78,0,0,0,.86-.35A1.46,1.46,0,0,0,241,65.17Z"/><path class="cls-13" d="M239.52,69.48a.84.84,0,0,0-.6.29.65.65,0,0,0-.29.6l0,.57a.77.77,0,0,0,1.5.21,2,2,0,0,0,.12-.91A.79.79,0,0,0,239.52,69.48Z"/><path class="cls-13" d="M210.15,90.31a1.48,1.48,0,0,0-2,.27,4.77,4.77,0,0,0,0,2.16.76.76,0,0,0,1.11.45A2.1,2.1,0,0,0,210.15,90.31Z"/><path class="cls-13" d="M161.24,88.28a.56.56,0,0,0-.23,0c-1.89.14-2.55,1.79-3.88,2.84a.75.75,0,0,0,0,1.08c.75.66,1.55.29,2.24-.28,1-.82,1.94-1.67,2.9-2.51C163,88.75,162,87.72,161.24,88.28Z"/></g></svg>